<?xml version="1.0" encoding="UTF-8"?>
<!DOCTYPE svg PUBLIC "-//W3C//DTD SVG 1.1//EN" "http://www.w3.org/Graphics/SVG/1.1/DTD/svg11.dtd">
<!-- Creator: CorelDRAW -->
<svg xmlns="http://www.w3.org/2000/svg" xml:space="preserve" width="0.539843in" height="0.516772in" style="shape-rendering:geometricPrecision; text-rendering:geometricPrecision; image-rendering:optimizeQuality; fill-rule:evenodd; clip-rule:evenodd"
viewBox="0 0 0.464906 0.445037"
 xmlns:xlink="http://www.w3.org/1999/xlink">
 <defs>
  <style type="text/css">
   <![CDATA[
    .fil2 {fill:#626587}
    .fil3 {fill:#707299}
    .fil0 {fill:#9988BA}
    .fil1 {fill:#A593C9}
    .fil4 {fill:white;fill-rule:nonzero}
   ]]>
  </style>
 </defs>
 <g id="Layer_x0020_1">
  <metadata id="CorelCorpID_0Corel-Layer"/>
  <g id="_208419520">
   <path id="_208414336" class="fil0" d="M0.130246 0l0.307729 0c0.0148707,0 0.0269308,0.01206 0.0269308,0.0269308l0 0.391176c0,0.0148674 -0.01206,0.0269274 -0.0269308,0.0269274l-0.307729 3.3905e-006c-0.0148674,-3.3905e-006 -0.0269274,-0.0120634 -0.0269274,-0.0269341l-3.3905e-006 -0.391172c3.3905e-006,-0.0148707 0.0120634,-0.0269308 0.0269341,-0.0269308z"/>
   <path id="_208414096" class="fil1" d="M0.130138 0l0.307732 0c0.0148097,0 0.0269274,0.0121719 0.0269274,0.0269308l0 0.0805888 -0.36159 0 0 -0.0805888c0,-0.0148131 0.0121177,-0.0269308 0.0269308,-0.0269308z"/>
   <path id="_208414216" class="fil2" d="M0.464902 0.311129l0 0.106981c0,0.0148131 -0.0121177,0.0269274 -0.0269274,0.0269274l-0.307732 0c-0.0148131,0 -0.0269308,-0.0121143 -0.0269308,-0.0269274l0 -0.106981 0.36159 0z"/>
   <rect id="_208414840" class="fil3" x="0.103315" y="0.222524" width="0.361591" height="0.119206"/>
   <path id="_208414480" class="fil2" d="M0.0157557 0.135105l0.180019 0c0.00870342,0 0.0157591,0.00705563 0.0157591,0.0157557l-3.3905e-006 0.189088c3.3905e-006,0.00869664 -0.00705224,0.0157523 -0.0157523,0.0157523l-0.180022 3.3905e-006c-0.00869664,-3.3905e-006 -0.0157523,-0.00705903 -0.0157523,-0.0157591l-3.3905e-006 -0.189085c3.3905e-006,-0.00870003 0.00705903,-0.0157557 0.0157591,-0.0157557z"/>
   <polygon id="_208415464" class="fil4" points="0.0729534,0.287294 0.101586,0.24358 0.0756455,0.203522 0.0954019,0.203522 0.112215,0.230439 0.128659,0.203522 0.14826,0.203522 0.1222,0.244204 0.150833,0.287294 0.130433,0.287294 0.111866,0.258326 0.0932388,0.287294 "/>
  </g>
 </g>
</svg>
