<?xml version="1.0" encoding="UTF-8"?>
<!DOCTYPE svg PUBLIC "-//W3C//DTD SVG 1.1//EN" "http://www.w3.org/Graphics/SVG/1.1/DTD/svg11.dtd">
<!-- Creator: CorelDRAW -->
<svg xmlns="http://www.w3.org/2000/svg" xml:space="preserve" width="0.437976in" height="0.437976in" style="shape-rendering:geometricPrecision; text-rendering:geometricPrecision; image-rendering:optimizeQuality; fill-rule:evenodd; clip-rule:evenodd"
viewBox="0 0 0.0493799 0.0493799"
 xmlns:xlink="http://www.w3.org/1999/xlink">
 <defs>
  <style type="text/css">
   <![CDATA[
    .fil0 {fill:#9988BA}
    .fil1 {fill:#FEFEFE;fill-rule:nonzero}
   ]]>
  </style>
 </defs>
 <g id="Layer_x0020_1">
  <metadata id="CorelCorpID_0Corel-Layer"/>
  <g id="_209243512">
   <rect id="_209352232" class="fil0" width="0.0493799" height="0.0493799"/>
   <path id="_209352688" class="fil1" d="M0.0259204 0.0276662l0.00478636 0 0 0.0114193c0,0.00124375 -8.21178e-005,0.00219632 -0.000242358,0.00286525 -0.000159797,0.000664932 -0.000422574,0.00125219 -0.000791882,0.00176931 -0.000488712,0.000664932 -0.00109194,0.00116563 -0.00180215,0.00150653 -0.000714203,0.000340456 -0.00151896,0.000513125 -0.00240539,0.000513125 -0.00110792,0 -0.00209334,-0.000238364 -0.00295935,-0.000710208 -0.00086601,-0.000472288 -0.00160906,-0.00117406 -0.00222473,-0.00210577l0.00293493 -0.00265973c7.0133e-005,0.000521115 0.00023792,0.00092327 0.000505135,0.00120247 0.000262333,0.000283195 0.000595243,0.000422574 0.000996954,0.000422574 0.000455421,0 0.000771463,-0.000254343 0.000944133,-0.000759479 0.000172225,-0.000504692 0.000258338,-0.00176487 0.000258338,-0.00378852l0 -0.00967481zm0.00911286 0.011916c0.000714203,0.000808749 0.00141997,0.00141642 0.00211376,0.00181458 0.000693784,0.000402155 0.00138313,0.000603233 0.00207292,0.000603233 0.000640519,0 0.00117007,-0.000172225 0.00158066,-0.00051712 0.000414584,-0.000344895 0.000619656,-0.000779897 0.000619656,-0.00130945 0,-0.000586809 -0.000176664,-0.00103868 -0.000533544,-0.00135472 -0.000357323,-0.000316043 -0.00116607,-0.000644514 -0.00242181,-0.000980975 -0.00172403,-0.000463855 -0.00294337,-0.00107153 -0.00365757,-0.00181414 -0.000714203,-0.00074705 -0.00107153,-0.00176931 -0.00107153,-0.00306632 0,-0.00168319 0.000562396,-0.00305833 0.00169118,-0.00412143 0.00112479,-0.00106309 0.00258604,-0.00159264 0.00438021,-0.00159264 0.000972541,0 0.00189226,0.000131388 0.00276227,0.000390171 0.000870449,0.000262777 0.00169118,0.000656498 0.00247108,0.00118605l-0.00150209 0.0034525c-0.000546416,-0.000464298 -0.00110437,-0.000817183 -0.0016792,-0.0010551 -0.000574825,-0.000233925 -0.00114077,-0.000352885 -0.00169917,-0.000352885 -0.000578819,0 -0.00104667,0.000139378 -0.00140799,0.000414584 -0.000361318,0.000274762 -0.000541977,0.000632085 -0.000541977,0.00106309 0,0.000442992 0.000160241,0.000796321 0.000476283,0.0010591 0.000316043,0.000266772 0.000927709,0.00051712 0.00183056,0.000759035l0.000217501 6.16993e-005c0.00195795,0.000525554 0.00324299,0.00110837 0.00385865,0.00174045 0.000418579,0.000435002 0.000734621,0.000952566 0.000952123,0.00155979 0.000217945,0.000603677 0.000324476,0.0012766 0.000324476,0.00201122 0,0.00186785 -0.000611667,0.00337038 -0.00183899,0.00450316 -0.00122733,0.00113678 -0.00286081,0.00170361 -0.00490532,0.00170361 -0.00122733,0 -0.00234369,-0.000209511 -0.00334952,-0.000624095 -0.00100539,-0.000418579 -0.00197438,-0.00107153 -0.00290608,-0.00196239l0.00216347 -0.00357101z"/>
  </g>
 </g>
</svg>
