<?xml version="1.0" encoding="UTF-8"?>
<!DOCTYPE svg PUBLIC "-//W3C//DTD SVG 1.1//EN" "http://www.w3.org/Graphics/SVG/1.1/DTD/svg11.dtd">
<!-- Creator: CorelDRAW -->
<svg xmlns="http://www.w3.org/2000/svg" xml:space="preserve" width="0.485213in" height="0.485213in" style="shape-rendering:geometricPrecision; text-rendering:geometricPrecision; image-rendering:optimizeQuality; fill-rule:evenodd; clip-rule:evenodd"
viewBox="0 0 0.0839697 0.0839697"
 xmlns:xlink="http://www.w3.org/1999/xlink">
 <defs>
  <style type="text/css">
   <![CDATA[
    .fil1 {fill:#FEFEFE}
    .fil0 {fill:#9988BA}
   ]]>
  </style>
 </defs>
 <g id="Layer_x0020_1">
  <metadata id="CorelCorpID_0Corel-Layer"/>
  <rect id="_490334224" class="fil0" width="0.0839697" height="0.0839697"/>
  <path class="fil1" d="M0.0464149 0.0353712l0.00243916 0.00076377c0.000248685,7.76715e-005 0.000450359,0.000782847 0.000450359,0.00157523l6.81329e-007 0.0270324c-6.81329e-007,0.000791704 -0.000202355,0.00137083 -0.00045104,0.00129248l-0.00243916 -0.000762407c-0.000249366,-7.83528e-005 -0.00045104,-0.000783528 -0.00045104,-0.00157591l0 -0.0270324c0,-0.000791704 0.000201673,-0.00137083 0.000450359,-0.00129316z"/>
  <path class="fil1" d="M0.0368694 0.0381067l0.00245006 0.000657483c0.00024596,6.67703e-005 0.000445589,0.000664977 0.000445589,0.00133609l-6.81329e-007 0.0232258c6.81329e-007,0.000671109 -0.000198948,0.00116167 -0.000444908,0.00109626l-0.00245006 -0.000657483c-0.00024596,-6.67703e-005 -0.000444908,-0.000664977 -0.000444908,-0.00133609l-6.81329e-007 -0.0232251c6.81329e-007,-0.00067179 0.000199629,-0.00116303 0.000445589,-0.00109694z"/>
  <path class="fil1" d="M0.0290757 0.0427023l0.00246369 0.000494645c0.000242553,4.83744e-005 0.000438776,0.000488513 0.000438776,0.000983158l-6.81329e-007 0.0173868c6.81329e-007,0.000493964 -0.000195541,0.000855749 -0.000438095,0.000807375l-0.00246369 -0.000493964c-0.000241872,-4.90557e-005 -0.000438095,-0.000489876 -0.000438095,-0.000983839l-6.81329e-007 -0.0173868c6.81329e-007,-0.000494645 0.000196904,-0.000856431 0.000439457,-0.000807375z"/>
  <path class="fil1" d="M0.021143 0.04687l0.00247254 0.000344071c0.000239828,3.33851e-005 0.000434688,0.000335214 0.000434688,0.000674516l-6.81329e-007 0.0120691c6.81329e-007,0.000339302 -0.000194179,0.000587306 -0.000434007,0.000553921l-0.00247254 -0.00034339c-0.000239828,-3.40665e-005 -0.000434007,-0.000335895 -0.000434007,-0.000675878l0 -0.0120684c0,-0.000339302 0.000194179,-0.000587306 0.000434007,-0.000553921z"/>
  <path id="_488652968" class="fil1" d="M0.0201142 0.0195841l0.0446761 0.00912232c0.00182528,0.000372687 0.00327787,0.00222522 0.00322814,0.00411659l-0.000754231 0.02881c-4.90557e-005,0.00188796 -0.00158205,0.00310686 -0.00340869,0.00276075l-0.0140933 -0.00267013 0 -0.00157591 0.0126141 0.00234241c0.00174488,0.000324313 0.00335623,7.29022e-005 0.00340392,-0.00172785l0.00073311 -0.027433c4.7693e-005,-0.00180143 -0.000586624,-0.00263606 -0.0023172,-0.0029958l-0.0441229 -0.00916592c-0.00173058,-0.000359742 -0.00183278,0.00152277 -0.00188183,0.00331603l-0.000709945 0.025757c-1.90772e-005,0.000689505 -0.000235059,0.00178576 0.000356335,0.00259178 0.000711308,0.000970894 0.00243916,0.00111806 0.00243848,0.00116984l-2.45278e-005 0.00148734c-0.00230562,-0.000470798 -0.00437209,-0.00157251 -0.00430055,-0.00433462l0.000754913 -0.02881c4.90557e-005,-0.00189137 0.00158273,-0.00313411 0.00340801,-0.00276075zm0.00450222 0.0355906l0.00352452 0.000797155 0 0.00103903 -0.00352452 -0.000816232 0 -0.00101995zm0.00804105 0.00164064l0.00322609 0.00061524 0 0.00107105 -0.00322609 -0.000633636 0 -0.00105265zm0.00789456 0.00160998l0.00469368 0.000878915 0 0.00110648 -0.00469368 -0.000900036 0 -0.00108536z"/>
 </g>
</svg>
