<?xml version="1.0" encoding="UTF-8"?>
<!DOCTYPE svg PUBLIC "-//W3C//DTD SVG 1.1//EN" "http://www.w3.org/Graphics/SVG/1.1/DTD/svg11.dtd">
<!-- Creator: CorelDRAW -->
<svg xmlns="http://www.w3.org/2000/svg" xml:space="preserve" width="0.424354in" height="0.416488in" style="shape-rendering:geometricPrecision; text-rendering:geometricPrecision; image-rendering:optimizeQuality; fill-rule:evenodd; clip-rule:evenodd"
viewBox="0 0 0.120637 0.118401"
 xmlns:xlink="http://www.w3.org/1999/xlink">
 <defs>
  <style type="text/css">
   <![CDATA[
    .fil1 {fill:#626587}
    .fil0 {fill:#A593C9}
   ]]>
  </style>
 </defs>
 <g id="Layer_x0020_1">
  <metadata id="CorelCorpID_0Corel-Layer"/>
  <g id="_40563344">
   <path id="_208412512" class="fil0" d="M0.0928207 0.0299348c0.00394303,8.9538e-005 0.0088486,0.000180195 0.0127916,0.000269733 0.00528386,0.000775623 0.0107423,0.00606396 0.0123932,0.0114284 0.00696158,0.0226117 -0.000892023,0.0426011 -0.0118851,0.0463046l-0.0463158 9.28957e-005 0.000247349 0.00425753c0.0097686,-8.9538e-005 0.0193402,-0.000192507 0.0291077,-0.000282045 -0.000439856,0.0115694 0.0032715,0.0206665 -0.0088195,0.0239626 -0.0108442,0.00356585 -0.0463897,0.00504771 -0.0486628,-0.0088721 0.000179076,-0.0109337 0.000358152,-0.0218674 0.000537228,-0.0328 0,-0.00618372 0.00241977,-0.0120988 0.0129058,-0.0129058 0.0121872,0.000269733 0.0243756,0.000538347 0.036564,0.000806962 0.0132662,-0.00437617 0.0112784,-0.0210582 0.0111363,-0.0322628zm-0.0156915 0.0692845c0.00297042,0 0.00537788,0.00240745 0.00537788,0.00537788 0,0.00296931 -0.00240745,0.00537676 -0.00537788,0.00537676 -0.00296931,0 -0.00537676,-0.00240745 -0.00537676,-0.00537676 0,-0.00297042 0.00240745,-0.00537788 0.00537676,-0.00537788z"/>
   <path id="_208413352" class="fil1" d="M0.0278161 0.0884658c-0.00394303,-8.9538e-005 -0.0088486,-0.000179076 -0.0127916,-0.000268614 -0.00528386,-0.000775623 -0.0107423,-0.00606508 -0.0123932,-0.0114295 -0.00696158,-0.0226117 0.000892023,-0.0426011 0.0118851,-0.0463046l0.0463158 -9.28957e-005 -0.000247349 -0.00425753c-0.0097686,8.9538e-005 -0.0193402,0.000193626 -0.0291077,0.000283164 0.000439856,-0.0115706 -0.0032715,-0.0206676 0.0088195,-0.0239637 0.0108442,-0.00356585 0.0463897,-0.00504771 0.0486628,0.00887322 -0.000179076,0.0109326 -0.000358152,0.0218663 -0.000537228,0.0327989 0,0.00618372 -0.00241977,0.0120988 -0.0129058,0.0129058 -0.0121872,-0.000268614 -0.0243756,-0.000538347 -0.036564,-0.000806962 -0.0132662,0.00437617 -0.0112784,0.0210582 -0.0111363,0.0322628zm0.0157072 -0.0801175c0.00296931,0 0.00537676,0.00240745 0.00537676,0.00537676 0,0.00297042 -0.00240745,0.00537788 -0.00537676,0.00537788 -0.00296931,0 -0.00537676,-0.00240745 -0.00537676,-0.00537788 0,-0.00296931 0.00240745,-0.00537676 0.00537676,-0.00537676z"/>
  </g>
 </g>
</svg>
